<?xml version="1.0" encoding="UTF-8" standalone="no"?>
<!-- Created with Inkscape (http://www.inkscape.org/) -->

<svg
   xmlns:dc="http://purl.org/dc/elements/1.1/"
   xmlns:cc="http://creativecommons.org/ns#"
   xmlns:rdf="http://www.w3.org/1999/02/22-rdf-syntax-ns#"
   xmlns:svg="http://www.w3.org/2000/svg"
   xmlns="http://www.w3.org/2000/svg"
   version="1.2"
   width="1800"
   height="500"
   id="svg2">
  <defs
     id="defs4">
    <clipPath
       id="clipPath3765">
      <path
         d="m 325.90552,474.69986 c 26.87575,-25.6335 41.63631,-55.26989 28.55483,-94.10535 -17.69173,27.62226 -40.06507,53.09875 -28.55483,94.10535 z"
         id="path3767"
         style="fill:#000000;stroke:#000000;stroke-width:1.09905207px;stroke-linecap:butt;stroke-linejoin:miter;stroke-opacity:1" />
    </clipPath>
    <clipPath
       id="clipPath3775">
      <path
         d="m 347.72273,381.05454 c -22.39292,29.22873 -31.85234,60.24845 -11.58918,95.3841 12.7794,-29.58048 30.66592,-57.89268 11.58918,-95.3841 z"
         id="path3777"
         style="fill:#000000;stroke:#000000;stroke-width:1.09905207px;stroke-linecap:butt;stroke-linejoin:miter;stroke-opacity:1" />
    </clipPath>
    <clipPath
       id="clipPath3815">
      <path
         d="m 157.14286,569.50504 c 98.38444,6.41362 147.2421,32.59174 188.57143,77.14286 25.6686,-45.55122 64.88103,-82.97614 128.57142,-105.71429 -30.53258,-50.25062 -68.04244,-101.16355 -77.14285,-208.57143 l -51.17126,21.74828 -81.20309,-52.4661 13.74869,88.18677 c -28.6251,14.30166 -44.56249,32.96087 -61.76708,58.40783 l -75.55255,2.06048 43.81405,62.26257 z"
         id="path3817"
         style="fill:#ff950f;fill-opacity:1;stroke:none" />
    </clipPath>
    <clipPath
       id="clipPath3840">
      <path
         d="m 157.14286,569.50504 c 98.38444,6.41362 147.2421,32.59174 188.57143,77.14286 25.6686,-45.55122 64.88103,-82.97614 128.57142,-105.71429 -30.53258,-50.25062 -68.04244,-101.16355 -77.14285,-208.57143 l -51.17126,21.74828 -81.20309,-52.4661 13.74869,88.18677 c -28.6251,14.30166 -44.56249,32.96087 -61.76708,58.40783 l -75.55255,2.06048 43.81405,62.26257 z"
         id="path3842"
         style="fill:#ff950f;fill-opacity:1;stroke:none" />
    </clipPath>
  </defs>
  <metadata
     id="metadata7">
    <rdf:RDF>
      <cc:Work
         rdf:about="">
        <dc:format>image/svg+xml</dc:format>
        <dc:type
           rdf:resource="http://purl.org/dc/dcmitype/StillImage" />
        <dc:title></dc:title>
      </cc:Work>
    </rdf:RDF>
  </metadata>
  <g
     transform="translate(0,-552.36218)"
     id="layer1">
    <g
       transform="translate(-1162.5,1600)"
       id="g3353">
      <g
         id="text4975"
         style="font-size:29.90918732px;font-style:normal;font-variant:normal;font-weight:normal;font-stretch:normal;line-height:125%;letter-spacing:0px;word-spacing:0px;fill:#1a1a1a;fill-opacity:1;stroke:none;font-family:Open Sans;-inkscape-font-specification:Open Sans">
        <path
           d="m 2368.6506,-763.97791 -13.538,0 0,-27.64555 -25.3673,0 0,27.64555 -13.5818,0 0,-64.05356 13.5818,0 0,25.10444 25.3673,0 0,-25.10444 13.538,0 0,64.05356"
           id="path3075"
           style="font-weight:bold;fill:#1a1a1a" />
        <path
           d="m 2399.27,-801.65647 13.3628,-26.375 14.6333,0 -21.249,39.12437 0,24.92919 -13.4942,0 0,-24.49106 -21.2489,-39.5625 14.7209,0 13.2751,26.375"
           id="path3077"
           style="font-weight:bold;fill:#1a1a1a" />
        <path
           d="m 2443.4713,-797.88861 4.4688,0 c 4.1768,3e-5 7.302,-0.8178 9.3758,-2.45349 2.0738,-1.66483 3.1107,-4.0745 3.1107,-7.22903 0,-3.18365 -0.8763,-5.5349 -2.6287,-7.05378 -1.7233,-1.51877 -4.4397,-2.27818 -8.1491,-2.27824 l -6.1775,0 0,19.01454 m 30.6686,-10.16446 c -1e-4,6.89318 -2.1615,12.16525 -6.4843,15.81624 -4.2936,3.65105 -10.4127,5.47656 -18.3573,5.47654 l -5.827,0 0,22.78238 -13.5818,0 0,-64.05356 20.4603,0 c 7.7693,7e-5 13.6694,1.67954 17.7002,5.03842 4.0598,3.32978 6.0898,8.30978 6.0899,14.93998"
           id="path3079"
           style="font-weight:bold;fill:#1a1a1a" />
        <path
           d="m 2517.6839,-763.97791 -36.8899,0 0,-64.05356 36.8899,0 0,11.12832 -23.3081,0 0,14.06375 21.687,0 0,11.12832 -21.687,0 0,16.51723 23.3081,0 0,11.21594"
           id="path3081"
           style="font-weight:bold;fill:#1a1a1a" />
        <path
           d="m 2539.1465,-799.59729 4.3813,0 c 4.2936,3e-5 7.4626,-0.71557 9.5072,-2.14681 2.0446,-1.43116 3.0669,-3.68019 3.0669,-6.74709 0,-3.0376 -1.0515,-5.19901 -3.1545,-6.48422 -2.0738,-1.2851 -5.3013,-1.92768 -9.6825,-1.92774 l -4.1184,0 0,17.30586 m 0,11.04069 0,24.57869 -13.5818,0 0,-64.05356 18.6641,0 c 8.704,7e-5 15.1444,1.59191 19.3212,4.77554 4.1767,3.15454 6.2651,7.95928 6.2652,14.41424 -1e-4,3.7679 -1.037,7.12684 -3.1107,10.07683 -2.0739,2.92085 -5.0093,5.21369 -8.8063,6.87853 9.6387,14.39965 15.9184,23.70245 18.8393,27.90842 l -15.0714,0 -15.2905,-24.57869 -7.2291,0"
           id="path3083"
           style="letter-spacing:-0.52999997px;fill:#1a1a1a" />
        <path
           d="m 2657.9965,-822.29206 c -7.0392,6e-5 -12.6033,2.35132 -16.6925,7.05378 -4.0599,4.67336 -6.0899,11.08455 -6.0899,19.23359 0,8.38278 1.957,14.86699 5.8709,19.45266 3.9431,4.55648 9.551,6.83472 16.8239,6.83472 4.4688,0 9.5656,-0.80322 15.2905,-2.40968 l 0,6.52803 c -4.4397,1.66487 -9.9162,2.4973 -16.4296,2.4973 -9.4343,0 -16.7217,-2.8624 -21.8624,-8.58721 -5.1114,-5.72479 -7.6671,-13.85926 -7.6671,-24.40344 0,-6.60101 1.2267,-12.38423 3.6802,-17.34967 2.4827,-4.96533 6.0461,-8.7916 10.6902,-11.47882 4.6733,-2.68709 10.1644,-4.03066 16.4734,-4.03073 6.7179,7e-5 12.5887,1.22681 17.6126,3.68024 l -3.1545,6.39659 c -4.8486,-2.27818 -9.6972,-3.4173 -14.5457,-3.41736"
           id="path3085"
           style="letter-spacing:-2.89999962px;fill:#1a1a1a" />
        <path
           d="m 2724.539,-763.97791 -7.9738,-20.37271 -25.674,0 -7.8862,20.37271 -7.5358,0 25.3235,-64.31643 6.2652,0 25.1921,64.31643 -7.711,0 m -10.2959,-27.07599 -7.4481,-19.84696 c -0.9639,-2.51186 -1.957,-5.59332 -2.9792,-9.2444 -0.6426,2.80404 -1.5627,5.8855 -2.7602,9.2444 l -7.5357,19.84696 20.7232,0"
           id="path3087"
           style="letter-spacing:-2.89999962px;fill:#1a1a1a" />
        <path
           d="m 2757.8718,-763.97791 -7.4481,0 0,-57.4379 -20.2851,0 0,-6.61566 48.0183,0 0,6.61566 -20.2851,0 0,57.4379"
           id="path3089"
           style="letter-spacing:-1.68000007px;fill:#1a1a1a" />
      </g>
      <g
         transform="matrix(0.4404419,0.09040974,-0.09040974,0.4404419,2124.6842,-1034.7424)"
         id="g4987">
        <path
           d="m 157.14286,569.50504 c 98.38444,6.41362 147.2421,32.59174 188.57143,77.14286 25.6686,-45.55122 64.88103,-82.97614 128.57142,-105.71429 -30.53258,-50.25062 -68.04244,-101.16355 -77.14285,-208.57143 l -51.17126,21.74828 -70.54869,-36.4845 3.09429,72.20517 c -28.6251,14.30166 -44.56249,32.96087 -61.76708,58.40783 l -75.55255,2.06048 43.81405,62.26257 z"
           id="path4989"
           style="fill:#ff950f;fill-opacity:1;stroke:none" />
        <g
           transform="matrix(0.99494537,-0.10041768,0.10041768,0.99494537,-41.727418,37.800854)"
           id="g4991"
           style="fill:#ff950f;fill-opacity:1">
          <rect
             width="132.31854"
             height="4.5853057"
             x="-217.57915"
             y="628.10187"
             transform="matrix(0.80686017,-0.59074247,0.59074247,0.80686017,0,0)"
             id="rect4993"
             style="fill:#ff950f;fill-opacity:1;stroke:none" />
          <rect
             width="132.31854"
             height="4.5853057"
             x="-263.18289"
             y="626.53436"
             transform="matrix(0.76162665,-0.64801609,0.64801609,0.76162665,0,0)"
             id="rect4995"
             style="fill:#ff950f;fill-opacity:1;stroke:none" />
          <rect
             width="132.31854"
             height="4.5853057"
             x="-313.32495"
             y="619.96606"
             transform="matrix(0.70628225,-0.70793035,0.70793035,0.70628225,0,0)"
             id="rect4997"
             style="fill:#ff950f;fill-opacity:1;stroke:none" />
        </g>
        <path
           d="m 352.2441,532.54565 c 9.35508,14.64913 12.72028,25.76649 -6.8397,52.43763 24.43883,-27.84856 32.63234,-34.46295 60.41728,-51.29768 -19.58433,5.52111 -31.56313,22.09394 -53.57758,-1.13995 z"
           id="path4999"
           style="fill:#ffffff;stroke:none" />
        <g
           transform="matrix(1.3295504,0,0,1.4018048,-109.9176,-184.13482)"
           id="g5001">
          <g
             transform="matrix(0.99999972,7.10989e-4,-7.903662e-4,0.99999972,3.9522281,-0.21819441)"
             id="g5003">
            <g
               transform="matrix(0.9998855,-0.01435225,0.01595459,0.9998855,-5.2849815,3.8721854)"
               id="g5005">
              <g
                 id="g5007">
                <path
                   d="m 316.22817,467.98157 c 38.41449,-0.6866 37.80868,-17.75389 44.33388,-50.64134 -21.90615,4.15393 -33.17741,18.45516 -44.33388,50.64134 z"
                   id="path5009"
                   style="fill:#ffffff;stroke:#ff950f;stroke-opacity:1" />
                <path
                   d="m 367.61067,429.31661 c -2.83023,5.51782 -14.283,3.55 -27.12583,3.55 -12.84283,0 -26.33305,0.59836 -26.33305,-4.28553 0,-4.88389 14.74097,-5.42186 27.71884,-5.01356 14.5456,0.45763 22.79639,2.3932 25.74004,5.74909 z"
                   transform="matrix(0.41759314,0.39034144,-0.41078601,0.397327,370.24011,137.03842)"
                   id="path5011"
                   style="fill:#ff950f;fill-opacity:1;stroke:#ff950f;stroke-opacity:1" />
              </g>
            </g>
            <g
               transform="matrix(0,0.94845616,1.054345,0,-189.25878,179.50364)"
               id="g5013">
              <path
                 d="m 316.22817,467.98157 c 38.41449,-0.6866 39.30081,-16.33867 45.82601,-49.22612 -21.90615,4.15393 -34.66954,17.03994 -45.82601,49.22612 z"
                 id="path5015"
                 style="fill:#ffffff;stroke:#ff950f;stroke-opacity:1" />
              <path
                 d="m 371.37579,426.81063 c -2.83023,5.51782 -18.85783,7.08335 -31.70066,7.08335 -12.84283,0 -23.28973,-0.57564 -23.28973,-5.45953 0,-4.88389 10.36353,-4.33168 23.20636,-4.33168 12.84283,0 28.84038,-0.64803 31.78403,2.70786 z"
                 transform="matrix(0.41759314,0.39034144,-0.41078601,0.397327,370.24011,137.03842)"
                 id="path5017"
                 style="fill:#ff950f;fill-opacity:1;stroke:#ff950f;stroke-opacity:1" />
            </g>
          </g>
        </g>
        <path
           d="m 314.9375,561.78125 -98.375,88.5 3.0625,3.40625 98.375,-88.5 -3.0625,-3.40625 z m 4.5625,4.40625 -91.65625,95.4375 3.3125,3.15625 L 322.8125,569.375 319.5,566.1875 z m 5.09375,3.53125 L 241,672.3125 l 3.5625,2.875 83.59375,-102.5625 -3.5625,-2.90625 z"
           clip-path="url(#clipPath3815)"
           id="path5019"
           style="fill:#ffffff;fill-opacity:1;stroke:none" />
        <g
           transform="matrix(-0.99953962,0.03034045,-0.03034045,-0.99953962,718.22203,1055.6103)"
           id="g5021"
           style="fill:#ff950f;fill-opacity:1">
          <rect
             width="132.31854"
             height="4.5853057"
             x="-217.57915"
             y="628.10187"
             transform="matrix(0.80686017,-0.59074247,0.59074247,0.80686017,0,0)"
             id="rect5023"
             style="fill:#ff950f;fill-opacity:1;stroke:none" />
          <rect
             width="132.31854"
             height="4.5853057"
             x="-263.18289"
             y="626.53436"
             transform="matrix(0.76162665,-0.64801609,0.64801609,0.76162665,0,0)"
             id="rect5025"
             style="fill:#ff950f;fill-opacity:1;stroke:none" />
          <rect
             width="132.31854"
             height="4.5853057"
             x="-313.32495"
             y="619.96606"
             transform="matrix(0.70628225,-0.70793035,0.70793035,0.70628225,0,0)"
             id="rect5027"
             style="fill:#ff950f;fill-opacity:1;stroke:none" />
        </g>
        <path
           d="m 477.375,399.6875 -90.5625,96.46875 3.34375,3.15625 90.5625,-96.46875 -3.34375,-3.15625 z M 490.03125,411 l -98.125,88.78125 3.0625,3.40625 98.125,-88.78125 L 490.03125,411 z m 10.6875,11.90625 L 396.375,504.25 l 2.84375,3.625 104.3125,-81.375 -2.8125,-3.59375 z"
           clip-path="url(#clipPath3840)"
           id="path5029"
           style="fill:#ffffff;fill-opacity:1;stroke:none" />
      </g>
      <rect
         width="114.52383"
         height="9.0648718"
         x="1765.7549"
         y="2212.5295"
         transform="matrix(0.32361448,-0.94618902,0.90781654,0.41936753,0,0)"
         id="rect5031"
         style="fill:#1a1a1a;fill-opacity:1;stroke:none" />
    </g>
    <flowRoot
       id="flowRoot5094"
       xml:space="preserve"
       style="font-size:40px;font-style:normal;font-variant:normal;font-weight:normal;font-stretch:normal;line-height:125%;letter-spacing:0px;word-spacing:0px;fill:#000000;fill-opacity:1;stroke:none;font-family:Open Sans;-inkscape-font-specification:Open Sans"><flowRegion
         id="flowRegion5096"><rect
           width="1136.0798"
           height="307.24173"
           x="-328.67719"
           y="-1091.1847"
           id="rect5098" /></flowRegion><flowPara
         id="flowPara5100" /></flowRoot>    <rect
       width="743.10559"
       height="256.24384"
       x="129.36108"
       y="675.42407"
       id="rect3384"
       style="fill:#2e2e2e;fill-opacity:1;stroke:none" />
    <g
       transform="translate(-1962.5,1600)"
       id="g3386">
      <g
         id="g3446">
        <g
           id="text3388"
           style="font-size:29.90918732px;font-style:normal;font-variant:normal;font-weight:normal;font-stretch:normal;line-height:125%;letter-spacing:0px;word-spacing:0px;fill:#ffffff;fill-opacity:1;stroke:none;font-family:Open Sans;-inkscape-font-specification:Open Sans">
          <path
             d="m 2368.6506,-763.97791 -13.538,0 0,-27.64555 -25.3673,0 0,27.64555 -13.5818,0 0,-64.05356 13.5818,0 0,25.10444 25.3673,0 0,-25.10444 13.538,0 0,64.05356"
             id="path3058"
             style="font-weight:bold;fill:#ffffff" />
          <path
             d="m 2399.27,-801.65647 13.3628,-26.375 14.6333,0 -21.249,39.12437 0,24.92919 -13.4942,0 0,-24.49106 -21.2489,-39.5625 14.7209,0 13.2751,26.375"
             id="path3060"
             style="font-weight:bold;fill:#ffffff" />
          <path
             d="m 2443.4713,-797.88861 4.4688,0 c 4.1768,3e-5 7.302,-0.8178 9.3758,-2.45349 2.0738,-1.66483 3.1107,-4.0745 3.1107,-7.22903 0,-3.18365 -0.8763,-5.5349 -2.6287,-7.05378 -1.7233,-1.51877 -4.4397,-2.27818 -8.1491,-2.27824 l -6.1775,0 0,19.01454 m 30.6686,-10.16446 c -1e-4,6.89318 -2.1615,12.16525 -6.4843,15.81624 -4.2936,3.65105 -10.4127,5.47656 -18.3573,5.47654 l -5.827,0 0,22.78238 -13.5818,0 0,-64.05356 20.4603,0 c 7.7693,7e-5 13.6694,1.67954 17.7002,5.03842 4.0598,3.32978 6.0898,8.30978 6.0899,14.93998"
             id="path3062"
             style="font-weight:bold;fill:#ffffff" />
          <path
             d="m 2517.6839,-763.97791 -36.8899,0 0,-64.05356 36.8899,0 0,11.12832 -23.3081,0 0,14.06375 21.687,0 0,11.12832 -21.687,0 0,16.51723 23.3081,0 0,11.21594"
             id="path3064"
             style="font-weight:bold;fill:#ffffff" />
          <path
             d="m 2539.1465,-799.59729 4.3813,0 c 4.2936,3e-5 7.4626,-0.71557 9.5072,-2.14681 2.0446,-1.43116 3.0669,-3.68019 3.0669,-6.74709 0,-3.0376 -1.0515,-5.19901 -3.1545,-6.48422 -2.0738,-1.2851 -5.3013,-1.92768 -9.6825,-1.92774 l -4.1184,0 0,17.30586 m 0,11.04069 0,24.57869 -13.5818,0 0,-64.05356 18.6641,0 c 8.704,7e-5 15.1444,1.59191 19.3212,4.77554 4.1767,3.15454 6.2651,7.95928 6.2652,14.41424 -1e-4,3.7679 -1.037,7.12684 -3.1107,10.07683 -2.0739,2.92085 -5.0093,5.21369 -8.8063,6.87853 9.6387,14.39965 15.9184,23.70245 18.8393,27.90842 l -15.0714,0 -15.2905,-24.57869 -7.2291,0"
             id="path3066"
             style="letter-spacing:-0.52999997px;fill:#ffffff" />
          <path
             d="m 2657.9965,-822.29206 c -7.0392,6e-5 -12.6033,2.35132 -16.6925,7.05378 -4.0599,4.67336 -6.0899,11.08455 -6.0899,19.23359 0,8.38278 1.957,14.86699 5.8709,19.45266 3.9431,4.55648 9.551,6.83472 16.8239,6.83472 4.4688,0 9.5656,-0.80322 15.2905,-2.40968 l 0,6.52803 c -4.4397,1.66487 -9.9162,2.4973 -16.4296,2.4973 -9.4343,0 -16.7217,-2.8624 -21.8624,-8.58721 -5.1114,-5.72479 -7.6671,-13.85926 -7.6671,-24.40344 0,-6.60101 1.2267,-12.38423 3.6802,-17.34967 2.4827,-4.96533 6.0461,-8.7916 10.6902,-11.47882 4.6733,-2.68709 10.1644,-4.03066 16.4734,-4.03073 6.7179,7e-5 12.5887,1.22681 17.6126,3.68024 l -3.1545,6.39659 c -4.8486,-2.27818 -9.6972,-3.4173 -14.5457,-3.41736"
             id="path3068"
             style="letter-spacing:-2.89999962px;fill:#ffffff" />
          <path
             d="m 2724.539,-763.97791 -7.9738,-20.37271 -25.674,0 -7.8862,20.37271 -7.5358,0 25.3235,-64.31643 6.2652,0 25.1921,64.31643 -7.711,0 m -10.2959,-27.07599 -7.4481,-19.84696 c -0.9639,-2.51186 -1.957,-5.59332 -2.9792,-9.2444 -0.6426,2.80404 -1.5627,5.8855 -2.7602,9.2444 l -7.5357,19.84696 20.7232,0"
             id="path3070"
             style="letter-spacing:-2.89999962px;fill:#ffffff" />
          <path
             d="m 2757.8718,-763.97791 -7.4481,0 0,-57.4379 -20.2851,0 0,-6.61566 48.0183,0 0,6.61566 -20.2851,0 0,57.4379"
             id="path3072"
             style="letter-spacing:-1.68000007px;fill:#ffffff" />
        </g>
        <g
           transform="matrix(0.4404419,0.09040974,-0.09040974,0.4404419,2124.6842,-1034.7424)"
           id="g3400">
          <path
             d="m 157.14286,569.50504 c 98.38444,6.41362 147.2421,32.59174 188.57143,77.14286 25.6686,-45.55122 64.88103,-82.97614 128.57142,-105.71429 -30.53258,-50.25062 -68.04244,-101.16355 -77.14285,-208.57143 l -51.17126,21.74828 -70.54869,-36.4845 3.09429,72.20517 c -28.6251,14.30166 -44.56249,32.96087 -61.76708,58.40783 l -75.55255,2.06048 43.81405,62.26257 z"
             id="path3402"
             style="fill:#ff950f;fill-opacity:1;stroke:none" />
          <g
             transform="matrix(0.99494537,-0.10041768,0.10041768,0.99494537,-41.727418,37.800854)"
             id="g3404"
             style="fill:#ff950f;fill-opacity:1">
            <rect
               width="132.31854"
               height="4.5853057"
               x="-217.57915"
               y="628.10187"
               transform="matrix(0.80686017,-0.59074247,0.59074247,0.80686017,0,0)"
               id="rect3406"
               style="fill:#ff950f;fill-opacity:1;stroke:none" />
            <rect
               width="132.31854"
               height="4.5853057"
               x="-263.18289"
               y="626.53436"
               transform="matrix(0.76162665,-0.64801609,0.64801609,0.76162665,0,0)"
               id="rect3408"
               style="fill:#ff950f;fill-opacity:1;stroke:none" />
            <rect
               width="132.31854"
               height="4.5853057"
               x="-313.32495"
               y="619.96606"
               transform="matrix(0.70628225,-0.70793035,0.70793035,0.70628225,0,0)"
               id="rect3410"
               style="fill:#ff950f;fill-opacity:1;stroke:none" />
          </g>
          <path
             d="m 352.2441,532.54565 c 9.35508,14.64913 12.72028,25.76649 -6.8397,52.43763 24.43883,-27.84856 32.63234,-34.46295 60.41728,-51.29768 -19.58433,5.52111 -31.56313,22.09394 -53.57758,-1.13995 z"
             id="path3412"
             style="fill:#ffffff;stroke:none" />
          <g
             transform="matrix(1.3295504,0,0,1.4018048,-109.9176,-184.13482)"
             id="g3414">
            <g
               transform="matrix(0.99999972,7.10989e-4,-7.903662e-4,0.99999972,3.9522281,-0.21819441)"
               id="g3416">
              <g
                 transform="matrix(0.9998855,-0.01435225,0.01595459,0.9998855,-5.2849815,3.8721854)"
                 id="g3418">
                <g
                   id="g3420">
                  <path
                     d="m 316.22817,467.98157 c 38.41449,-0.6866 37.80868,-17.75389 44.33388,-50.64134 -21.90615,4.15393 -33.17741,18.45516 -44.33388,50.64134 z"
                     id="path3422"
                     style="fill:#ffffff;stroke:#ff950f;stroke-opacity:1" />
                  <path
                     d="m 367.61067,429.31661 c -2.83023,5.51782 -14.283,3.55 -27.12583,3.55 -12.84283,0 -26.33305,0.59836 -26.33305,-4.28553 0,-4.88389 14.74097,-5.42186 27.71884,-5.01356 14.5456,0.45763 22.79639,2.3932 25.74004,5.74909 z"
                     transform="matrix(0.41759314,0.39034144,-0.41078601,0.397327,370.24011,137.03842)"
                     id="path3424"
                     style="fill:#ff950f;fill-opacity:1;stroke:#ff950f;stroke-opacity:1" />
                </g>
              </g>
              <g
                 transform="matrix(0,0.94845616,1.054345,0,-189.25878,179.50364)"
                 id="g3426">
                <path
                   d="m 316.22817,467.98157 c 38.41449,-0.6866 39.30081,-16.33867 45.82601,-49.22612 -21.90615,4.15393 -34.66954,17.03994 -45.82601,49.22612 z"
                   id="path3428"
                   style="fill:#ffffff;stroke:#ff950f;stroke-opacity:1" />
                <path
                   d="m 371.37579,426.81063 c -2.83023,5.51782 -18.85783,7.08335 -31.70066,7.08335 -12.84283,0 -23.28973,-0.57564 -23.28973,-5.45953 0,-4.88389 10.36353,-4.33168 23.20636,-4.33168 12.84283,0 28.84038,-0.64803 31.78403,2.70786 z"
                   transform="matrix(0.41759314,0.39034144,-0.41078601,0.397327,370.24011,137.03842)"
                   id="path3430"
                   style="fill:#ff950f;fill-opacity:1;stroke:#ff950f;stroke-opacity:1" />
              </g>
            </g>
          </g>
          <path
             d="m 314.9375,561.78125 -98.375,88.5 3.0625,3.40625 98.375,-88.5 -3.0625,-3.40625 z m 4.5625,4.40625 -91.65625,95.4375 3.3125,3.15625 L 322.8125,569.375 319.5,566.1875 z m 5.09375,3.53125 L 241,672.3125 l 3.5625,2.875 83.59375,-102.5625 -3.5625,-2.90625 z"
             clip-path="url(#clipPath3815)"
             id="path3432"
             style="fill:#ffffff;fill-opacity:1;stroke:none" />
          <g
             transform="matrix(-0.99953962,0.03034045,-0.03034045,-0.99953962,718.22203,1055.6103)"
             id="g3434"
             style="fill:#ff950f;fill-opacity:1">
            <rect
               width="132.31854"
               height="4.5853057"
               x="-217.57915"
               y="628.10187"
               transform="matrix(0.80686017,-0.59074247,0.59074247,0.80686017,0,0)"
               id="rect3436"
               style="fill:#ff950f;fill-opacity:1;stroke:none" />
            <rect
               width="132.31854"
               height="4.5853057"
               x="-263.18289"
               y="626.53436"
               transform="matrix(0.76162665,-0.64801609,0.64801609,0.76162665,0,0)"
               id="rect3438"
               style="fill:#ff950f;fill-opacity:1;stroke:none" />
            <rect
               width="132.31854"
               height="4.5853057"
               x="-313.32495"
               y="619.96606"
               transform="matrix(0.70628225,-0.70793035,0.70793035,0.70628225,0,0)"
               id="rect3440"
               style="fill:#ff950f;fill-opacity:1;stroke:none" />
          </g>
          <path
             d="m 477.375,399.6875 -90.5625,96.46875 3.34375,3.15625 90.5625,-96.46875 -3.34375,-3.15625 z M 490.03125,411 l -98.125,88.78125 3.0625,3.40625 98.125,-88.78125 L 490.03125,411 z m 10.6875,11.90625 L 396.375,504.25 l 2.84375,3.625 104.3125,-81.375 -2.8125,-3.59375 z"
             clip-path="url(#clipPath3840)"
             id="path3442"
             style="fill:#ffffff;fill-opacity:1;stroke:none" />
        </g>
        <rect
           width="114.52383"
           height="9.0648718"
           x="1765.7549"
           y="2212.5295"
           transform="matrix(0.32361448,-0.94618902,0.90781654,0.41936753,0,0)"
           id="rect3444"
           style="fill:#ffffff;fill-opacity:1;stroke:none" />
      </g>
    </g>
    <g
       transform="translate(-800,20)"
       id="g3479" />
  </g>
</svg>
